# xmcd
#
# Track frame offsets:
#	150
#	26322
#	42092
#	63332
#	82182
#	99352
#	121350
#	142230
#	165742
#	182050
#
# Disc length: 2649 seconds
#
# Revision: 1
# Processed by: cddbd v1.4b41PL2 Copyright (c) Steve Scherf et al.
# Submitted via: audiograbber 1.80
#
DISCID=830a570a
DTITLE=Gladys Knight and The Pips - Visions
DYEAR=1900
DGENRE=
TTITLE0=When You're Far Away
TTITLE1=Just Be My Lover
TTITLE2=Save The Overtime (For Me)
TTITLE3=Heaven Sent
TTITLE4=Don't Make Me Run Away
TTITLE5=Ain't No Greater Love
TTITLE6=Seconds
TTITLE7=You're Number One (In My Book)
TTITLE8=Oh La De Da
TTITLE9=Hero (Wind Beneath My Wings)
EXTD=
EXTT0=
EXTT1=
EXTT2=
EXTT3=
EXTT4=
EXTT5=
EXTT6=
EXTT7=
EXTT8=
EXTT9=
PLAYORDER=
